<svg width="63" height="63" viewBox="0 0 63 63" fill="none" xmlns="http://www.w3.org/2000/svg">
<g clip-path="url(#clip0_58_370)">
<path d="M57.8148 23.8891V18.7039H52.6296V13.5187C52.6296 10.6668 50.2963 8.3335 47.4444 8.3335H11.1481C8.29629 8.3335 5.96295 10.6668 5.96295 13.5187V49.815C5.96295 52.6668 8.29629 55.0002 11.1481 55.0002H47.4444C50.2963 55.0002 52.6296 52.6668 52.6296 49.815V44.6298H57.8148V39.4446H52.6296V34.2594H57.8148V29.0742H52.6296V23.8891H57.8148ZM47.4444 49.815H11.1481V13.5187H47.4444V49.815ZM16.3333 34.2594H29.2963V44.6298H16.3333V34.2594ZM31.8889 18.7039H42.2593V26.4816H31.8889V18.7039ZM16.3333 18.7039H29.2963V31.6668H16.3333V18.7039ZM31.8889 29.0742H42.2593V44.6298H31.8889V29.0742Z" fill="#1671AA"/>
</g>
<defs>
<clipPath id="clip0_58_370">
<rect width="62.2222" height="62.2222" fill="white" transform="translate(0.777771 0.555664)"/>
</clipPath>
</defs>
</svg>
