<svg width="54" height="54" viewBox="0 0 54 54" fill="none" xmlns="http://www.w3.org/2000/svg">
<path d="M38 39.9999H15.7778V13.3333H38V15.5555H42.4444V6.66661C42.4444 4.22217 40.4444 2.22217 38 2.22217H15.7778C13.3333 2.22217 11.3333 4.22217 11.3333 6.66661V46.6666C11.3333 49.1111 13.3333 51.1111 15.7778 51.1111H38C40.4444 51.1111 42.4444 49.1111 42.4444 46.6666V37.7777H38V39.9999ZM15.7778 6.66661H38V8.88883H15.7778V6.66661ZM38 46.6666H15.7778V44.4444H38V46.6666Z" fill="#1671AA"/>
<path d="M45.5111 21.3779L46.8889 24.4446L48.2667 21.3779L51.3333 20.0001L48.2667 18.6223L46.8889 15.5557L45.5111 18.6223L42.4445 20.0001L45.5111 21.3779Z" fill="#1671AA"/>
<path d="M35.7777 17.7778L33 23.8889L26.8889 26.6667L33 29.4445L35.7777 35.5556L38.5555 29.4445L44.6666 26.6667L38.5555 23.8889L35.7777 17.7778Z" fill="#1671AA"/>
<path d="M46.8889 28.8887L45.5111 31.9553L42.4445 33.3331L45.5111 34.7109L46.8889 37.7776L48.2667 34.7109L51.3333 33.3331L48.2667 31.9553L46.8889 28.8887Z" fill="#1671AA"/>
</svg>
