<svg width="63" height="64" viewBox="0 0 63 64" fill="none" xmlns="http://www.w3.org/2000/svg">
<g clip-path="url(#clip0_58_380)">
<path d="M49.1815 46.5962C39.3296 53.8554 33.3148 47.6332 31.8889 46.5962C30.1778 47.8666 24.3185 53.7517 14.5963 46.5962C9.67036 50.2258 7.64814 50.148 5.96295 50.148V55.3332C8.97036 55.3332 11.9259 54.5036 14.5963 52.9221C19.937 56.0851 26.5481 56.0851 31.8889 52.9221C37.2296 56.0851 43.8407 56.0851 49.1815 52.9221C51.8518 54.5036 54.8074 55.3332 57.8148 55.3332V50.148C56.1037 50.148 53.9259 50.0962 49.1815 46.5962Z" fill="#1671AA"/>
<path d="M50.8926 31.9998H57.8148V26.8147H50.8926C46.1481 26.8147 42.2593 22.9258 42.2593 18.1813C42.2593 15.5369 43.2444 13.6702 45.0852 9.52206C41.5333 8.97761 39.9 8.6665 37.0741 8.6665C19.8592 8.6665 6.35184 21.7072 5.98888 38.4813L5.96295 43.6665C8.97036 43.6665 11.9259 42.8369 14.5963 41.2554C19.937 44.4184 26.5481 44.4184 31.8889 41.2554C37.2296 44.4184 43.8407 44.4184 49.1815 41.2554C51.8518 42.8369 54.8074 43.6665 57.8148 43.6665V38.4813C56.1037 38.4813 53.9259 38.4295 49.1815 34.9295C39.3296 42.1887 33.3148 35.9665 31.8889 34.9295C29.5555 36.6665 30.4889 35.9924 29.5296 36.5628C27.7148 34.1258 26.7037 31.2221 26.7037 28.1109C26.7037 21.4221 31.2926 15.8221 37.6185 14.2924C37.2815 15.6147 37.0741 16.9369 37.0741 18.1813C37.0741 25.8035 43.2704 31.9998 50.8926 31.9998ZM14.5963 34.9295C12.9889 36.1221 12.4704 36.5628 11.2259 37.185C11.9259 28.0332 17.3963 20.385 25.3037 16.548C22.9185 19.7887 21.5185 23.7813 21.5185 28.1109C21.5185 31.7924 22.5555 35.2924 24.4481 38.3517C22.5815 38.5332 19.8074 38.7406 14.5963 34.9295Z" fill="#1671AA"/>
</g>
<defs>
<clipPath id="clip0_58_380">
<rect width="62.2222" height="62.2222" fill="white" transform="translate(0.777771 0.888672)"/>
</clipPath>
</defs>
</svg>
