<svg width="50" height="50" viewBox="0 0 50 50" fill="none" xmlns="http://www.w3.org/2000/svg">
<path d="M45.8334 36.6812C44.1959 41.4312 39.2938 49.8417 34.2438 49.9333C30.8938 49.9979 29.8167 47.9479 25.9875 47.9479C22.1604 47.9479 20.9625 49.8708 17.7959 49.9958C12.4375 50.2021 4.16669 37.8563 4.16669 27.0896C4.16669 17.2 11.0584 12.2979 17.0792 12.2083C20.3084 12.15 23.3584 14.3854 25.3271 14.3854C27.3042 14.3854 31.0084 11.6979 34.9021 12.0917C36.5313 12.1604 41.1084 12.7479 44.0459 17.0437C36.2521 22.1312 37.4667 32.7708 45.8334 36.6812ZM34.9542 0C29.0667 0.2375 24.2625 6.41458 24.9334 11.5229C30.375 11.9458 35.5959 5.84583 34.9542 0Z" fill="#1671AA"/>
</svg>
