<svg width="35" height="35" viewBox="0 0 35 35" fill="none" xmlns="http://www.w3.org/2000/svg">
<path d="M32.0834 25.6769C30.9371 29.0019 27.5056 34.8892 23.9706 34.9533C21.6256 34.9985 20.8717 33.5635 18.1913 33.5635C15.5123 33.5635 14.6738 34.9096 12.4571 34.9971C8.70627 35.1415 2.91669 26.4994 2.91669 18.9627C2.91669 12.04 7.74085 8.60854 11.9554 8.54583C14.2159 8.505 16.3509 10.0698 17.729 10.0698C19.1129 10.0698 21.7059 8.18854 24.4315 8.46417C25.5719 8.51229 28.7759 8.92354 30.8321 11.9306C25.3765 15.4919 26.2267 22.9396 32.0834 25.6769ZM24.4679 0C20.3467 0.16625 16.9838 4.49021 17.4534 8.06604C21.2625 8.36208 24.9171 4.09208 24.4679 0Z" fill="#1671AA"/>
</svg>
