<svg width="31" height="31" viewBox="0 0 31 31" fill="none" xmlns="http://www.w3.org/2000/svg">
<path d="M15.5 2.5835C10.5013 2.5835 6.45834 6.62641 6.45834 11.6252C6.45834 18.4064 15.5 28.4168 15.5 28.4168C15.5 28.4168 24.5417 18.4064 24.5417 11.6252C24.5417 6.62641 20.4988 2.5835 15.5 2.5835ZM9.04168 11.6252C9.04168 8.06016 11.935 5.16683 15.5 5.16683C19.065 5.16683 21.9583 8.06016 21.9583 11.6252C21.9583 15.3452 18.2383 20.9122 15.5 24.3868C12.8133 20.9381 9.04168 15.3064 9.04168 11.6252Z" fill="#1671AA"/>
<path d="M15.5 14.8543C17.2834 14.8543 18.7292 13.4086 18.7292 11.6252C18.7292 9.84174 17.2834 8.396 15.5 8.396C13.7166 8.396 12.2708 9.84174 12.2708 11.6252C12.2708 13.4086 13.7166 14.8543 15.5 14.8543Z" fill="#1671AA"/>
</svg>
