<svg width="120" height="54" viewBox="0 0 120 54" fill="none" xmlns="http://www.w3.org/2000/svg">
<g clip-path="url(#clip0_44_183)">
<path d="M39.3509 33.8525C39.3416 33.5085 39.331 33.1865 39.3196 32.807C39.1668 27.7979 39.0471 23.8699 42.1966 19.2886C43.3764 17.5726 45.1956 15.6803 47.5838 14.367C49.4548 13.3381 51.6719 12.6642 54.2005 12.7046C57.0125 12.7496 58.8766 13.6224 60.525 14.3943L60.7566 14.5026C60.9809 13.1524 61.2596 11.7418 61.6777 10.3661C62.2498 8.48338 63.0757 6.69261 64.3604 5.25158C65.4748 4.00147 67.0059 2.98926 68.631 2.19759C70.6971 1.19111 72.937 0.531918 74.6351 0.197745L75.6399 0L75.7906 1.06124C76.0157 2.64716 76.1003 4.50403 75.5922 6.78315C75.1967 8.55617 74.4397 10.5783 73.1024 12.9158C75.5251 12.86 78.4216 13.4628 80.9193 14.7006C83.2238 15.8428 85.2139 17.5339 86.2477 19.7661L86.658 20.6521L85.8278 21.1219C83.2323 22.5909 81.6339 24.4682 80.8111 26.5858C79.8758 28.9929 79.7507 31.172 80.4559 33.8367H78.443C77.7821 30.8508 77.8794 28.6576 78.9855 25.8109C79.8766 23.5171 81.4927 21.4753 84.0177 19.838C83.1192 18.4635 81.6991 17.3674 80.0795 16.5647C77.7315 15.401 74.9998 14.8675 72.7943 14.9894C71.3258 15.0706 69.9434 15.6485 68.5971 16.2113C67.0614 16.8534 65.5669 17.4781 63.8686 17.4843C62.3197 17.4899 61.0945 16.9165 59.7238 16.2746C58.247 15.5832 56.5764 14.801 54.1774 14.7626C52.0051 14.7279 50.1004 15.307 48.4928 16.1909C46.4124 17.3348 44.8237 18.9891 43.7912 20.4911C41.0327 24.5036 41.1431 28.1246 41.284 32.7424C41.2946 33.0919 41.3056 33.4486 41.3165 33.8587L39.351 33.8525H39.3509ZM62.6288 15.2478C63.0374 15.3609 63.447 15.4279 63.8685 15.4264C65.1867 15.4217 66.4853 14.9567 67.8469 14.3875C68.7065 14.0282 69.8963 13.6936 70.9094 12.4219C71.9224 11.1502 73.242 8.25204 73.674 6.31514C74.001 4.84858 74.0423 3.57867 73.9607 2.45502C72.5778 2.79889 70.9667 3.33367 69.4551 4.07016C68.0389 4.76009 66.723 5.62153 65.8008 6.65601C64.7363 7.84999 64.0403 9.37227 63.5494 10.9876C63.1282 12.3738 62.8535 13.8452 62.629 15.2478H62.6288Z" fill="#2B2A29"/>
<path d="M12.0864 53.6426H9.48307L1.96385 38.1407V53.6426H0.000366211V36.3131H3.26195L10.1231 50.4644V36.3131H12.0866V53.6426H12.0864ZM25.4161 53.6426H23.409V52.2521C23.2308 52.3832 22.9945 52.5699 22.6927 52.8044C22.3909 53.0428 22.1001 53.2295 21.8165 53.3725C21.4819 53.5513 21.1003 53.6982 20.6676 53.8214C20.2385 53.9406 19.7294 54.0001 19.1513 54.0001C18.0824 54.0001 17.1734 53.6108 16.4317 52.8361C15.6862 52.0574 15.3155 51.0681 15.3155 49.8644C15.3155 48.8752 15.5082 48.0767 15.8937 47.4688C16.279 46.857 16.8317 46.3763 17.5481 46.0267C18.268 45.6771 19.137 45.4427 20.1478 45.3156C21.1622 45.1924 22.2495 45.1011 23.4093 45.0376V44.6959C23.4093 44.1993 23.3292 43.7821 23.1693 43.4564C23.0092 43.1268 22.7838 42.8684 22.4857 42.6817C22.2021 42.5029 21.8602 42.3797 21.464 42.3202C21.0677 42.2566 20.6531 42.2249 20.2204 42.2249C19.6969 42.2249 19.1114 42.3004 18.4679 42.4553C17.8207 42.6101 17.1552 42.8367 16.4681 43.1306H16.3627V40.9098C16.7518 40.7945 17.3189 40.6674 18.057 40.5283C18.7952 40.3893 19.5224 40.3178 20.2386 40.3178C21.0785 40.3178 21.8057 40.3933 22.4275 40.5442C23.0493 40.6952 23.5874 40.9535 24.042 41.3189C24.4891 41.6764 24.831 42.1373 25.0637 42.7055C25.3 43.2736 25.4163 43.9767 25.4163 44.815V53.6426H25.4161ZM23.409 50.4406V46.8014C22.8018 46.8412 22.0855 46.9007 21.2637 46.9762C20.4384 47.0557 19.7874 47.1669 19.3075 47.3179C18.733 47.4967 18.2712 47.7749 17.9186 48.1522C17.5659 48.5295 17.3877 49.0541 17.3877 49.7135C17.3877 50.4644 17.5914 51.0285 18.0022 51.406C18.4131 51.7833 19.0385 51.9741 19.8784 51.9741C20.5802 51.9741 21.2165 51.8232 21.7982 51.5252C22.3764 51.2232 22.9145 50.8618 23.409 50.4406V50.4406ZM39.2183 53.6426H37.2113V46.2412C37.2113 45.6453 37.1785 45.0851 37.1168 44.5607C37.0513 44.0363 36.935 43.6271 36.7641 43.3331C36.586 43.0074 36.3278 42.765 35.9932 42.606C35.6588 42.4471 35.2261 42.3677 34.6915 42.3677C34.1461 42.3677 33.5715 42.5147 32.9752 42.8087C32.3753 43.1027 31.8044 43.48 31.2554 43.937V53.6426H29.2483V40.6515H31.2554V42.0976C31.8808 41.5295 32.5279 41.0885 33.197 40.7706C33.866 40.4528 34.5532 40.2939 35.2586 40.2939C36.5457 40.2939 37.5275 40.715 38.2038 41.5612C38.8801 42.4073 39.2182 43.623 39.2182 45.2122V53.6426H39.2183ZM53.1988 47.151C53.1988 49.2686 52.7008 50.9371 51.7081 52.1647C50.7154 53.3883 49.3846 54.0001 47.7193 54.0001C46.0359 54.0001 44.7015 53.3883 43.7088 52.1647C42.7198 50.9371 42.2254 49.2686 42.2254 47.151C42.2254 45.0376 42.7199 43.3649 43.7088 42.1373C44.7015 40.9098 46.0359 40.294 47.7193 40.294C49.3846 40.294 50.7154 40.9098 51.7081 42.1373C52.7008 43.3649 53.1988 45.0376 53.1988 47.151ZM51.1262 47.151C51.1262 45.4785 50.8245 44.235 50.2245 43.4206C49.621 42.6062 48.7882 42.201 47.7193 42.201C46.6358 42.201 45.7923 42.6062 45.196 43.4206C44.5959 44.2351 44.2979 45.4785 44.2979 47.151C44.2979 48.7719 44.5997 49.9995 45.1996 50.8379C45.8032 51.6761 46.6431 52.0933 47.7194 52.0933C48.7812 52.0933 49.6138 51.6801 50.2174 50.8497C50.8246 50.0194 51.1264 48.7879 51.1264 47.151H51.1262ZM75.6366 48.6965C75.6366 49.3679 75.4912 50.0354 75.2039 50.6949C74.9167 51.3543 74.5166 51.9145 73.9968 52.3715C73.4296 52.868 72.7678 53.2534 72.0115 53.5356C71.2588 53.8136 70.3462 53.9528 69.2846 53.9528C68.1429 53.9528 67.1139 53.8375 66.2013 53.6032C65.2923 53.3728 64.3651 53.0271 63.4198 52.5702V49.6859H63.5689C64.3688 50.4091 65.2924 50.9692 66.3432 51.3625C67.3904 51.7559 68.3758 51.9505 69.2993 51.9505C70.601 51.9505 71.6191 51.6843 72.3426 51.152C73.0698 50.6196 73.4334 49.9084 73.4334 49.0186C73.4334 48.2517 73.2625 47.6876 72.917 47.3221C72.5753 46.9567 72.0516 46.6746 71.3499 46.4719C70.8155 46.3169 70.2409 46.1899 69.6193 46.0905C68.9975 45.9872 68.3394 45.8601 67.6449 45.7051C66.2413 45.3794 65.2014 44.8232 64.5215 44.0365C63.8452 43.2499 63.5071 42.2249 63.5071 40.9576C63.5071 39.5075 64.067 38.3197 65.1905 37.3939C66.3141 36.4683 67.7357 36.0034 69.4629 36.0034C70.579 36.0034 71.6008 36.1187 72.5317 36.353C73.4624 36.5834 74.2879 36.8735 75.0041 37.2152V39.9365H74.855C74.2514 39.3802 73.4588 38.9195 72.477 38.5539C71.4917 38.1884 70.4882 38.0056 69.4592 38.0056C68.3285 38.0056 67.4231 38.2599 66.7395 38.7683C66.0524 39.2808 65.7105 39.9363 65.7105 40.7388C65.7105 41.4578 65.8814 42.0259 66.2196 42.4352C66.5614 42.8484 67.1614 43.1623 68.0194 43.3768C68.474 43.4881 69.1175 43.6191 69.9539 43.7741C70.7937 43.9291 71.5027 44.0879 72.0846 44.2508C73.2627 44.5925 74.1462 45.109 74.7424 45.7963C75.3387 46.4876 75.6369 47.453 75.6369 48.6964L75.6366 48.6965ZM85.054 53.5315C84.6794 53.6428 84.2686 53.7302 83.825 53.8016C83.3813 53.8692 82.9851 53.9048 82.6396 53.9048C81.4251 53.9048 80.5016 53.5473 79.8726 52.8322C79.2399 52.1212 78.9237 50.9769 78.9237 49.3997V42.487H77.5711V40.6515H78.9237V36.9091H80.9308V40.6515H85.054V42.487H80.9308V48.4184C80.9308 49.1017 80.9453 49.638 80.9744 50.0234C80.9999 50.4088 81.1016 50.7663 81.2725 51.1001C81.4253 51.4099 81.6397 51.6403 81.9125 51.7834C82.1853 51.9264 82.6034 51.998 83.1632 51.998C83.4869 51.998 83.8286 51.9424 84.1813 51.8351C84.5376 51.7277 84.7921 51.6403 84.9484 51.5689H85.0538V53.5315H85.054ZM97.62 47.1512C97.62 49.2687 97.1218 50.9373 96.1291 52.1649C95.1365 53.3885 93.8057 54.0003 92.1405 54.0003C90.4571 54.0003 89.1226 53.3885 88.13 52.1649C87.1409 50.9373 86.6464 49.2687 86.6464 47.1512C86.6464 45.0377 87.1409 43.3651 88.13 42.1375C89.1226 40.9099 90.4571 40.2941 92.1405 40.2941C93.8057 40.2941 95.1366 40.9099 96.1291 42.1375C97.1218 43.3651 97.62 45.0377 97.62 47.1512ZM95.5474 47.1512C95.5474 45.4787 95.2456 44.2351 94.6457 43.4208C94.0422 42.6063 93.2096 42.2011 92.1405 42.2011C91.057 42.2011 90.2134 42.6063 89.617 43.4208C89.0171 44.2352 88.719 45.4787 88.719 47.1512C88.719 48.7721 89.0208 49.9996 89.6207 50.838C90.2242 51.6762 91.0641 52.0934 92.1405 52.0934C93.2023 52.0934 94.0349 51.6802 94.6384 50.8499C95.2456 50.0196 95.5474 48.788 95.5474 47.1512V47.1512ZM108.157 43.0354H108.052C107.75 42.9599 107.463 42.9043 107.179 42.8725C106.899 42.8367 106.568 42.8209 106.183 42.8209C105.565 42.8209 104.965 42.9719 104.39 43.2697C103.812 43.5677 103.259 43.9531 102.725 44.4259V53.6429H100.718V40.6518H102.725V42.5707C103.521 41.8715 104.223 41.3789 104.834 41.0888C105.441 40.7987 106.063 40.6518 106.695 40.6518C107.044 40.6518 107.295 40.6597 107.452 40.6797C107.608 40.6996 107.844 40.7352 108.157 40.791V43.0355L108.157 43.0354ZM120 47.3738H111.23C111.23 48.1683 111.339 48.8636 111.56 49.4556C111.779 50.0474 112.08 50.5322 112.466 50.9096C112.833 51.279 113.273 51.5571 113.778 51.7438C114.287 51.9305 114.847 52.0219 115.458 52.0219C116.265 52.0219 117.08 51.8471 117.901 51.4935C118.72 51.1399 119.305 50.7903 119.654 50.4487H119.759V52.8363C119.087 53.1462 118.396 53.4045 117.694 53.615C116.992 53.8256 116.254 53.9289 115.48 53.9289C113.509 53.9289 111.967 53.3448 110.862 52.1808C109.753 51.0168 109.2 49.3601 109.2 47.2148C109.2 45.0933 109.731 43.4089 110.793 42.1653C111.855 40.9178 113.251 40.2941 114.982 40.2941C116.589 40.2941 117.825 40.8067 118.694 41.8276C119.563 42.8525 119.999 44.3027 119.999 46.1858V47.3736L120 47.3738ZM118.058 45.7052C118.051 44.5611 117.785 43.6751 117.262 43.0474C116.742 42.4198 115.945 42.1058 114.88 42.1058C113.804 42.1058 112.949 42.4514 112.313 43.1388C111.677 43.8301 111.317 44.6841 111.23 45.7052H118.058Z" fill="#2B2A29"/>
</g>
<defs>
<clipPath id="clip0_44_183">
<rect width="120" height="54" fill="white"/>
</clipPath>
</defs>
</svg>
