<svg width="63" height="63" viewBox="0 0 63 63" fill="none" xmlns="http://www.w3.org/2000/svg">
<g clip-path="url(#clip0_58_389)">
<path d="M12.0296 8.2627L8.37408 11.9183L19.6778 23.222L18.9259 23.9997H8.55557V39.5553H18.9259L31.8889 52.5182V35.4331L42.7259 46.2701C41.0407 47.5405 39.1482 48.5516 37.0741 49.1479V54.4886C40.5482 53.7108 43.737 52.1034 46.4333 49.9516L51.7482 55.2664L55.4037 51.6108L12.0296 8.2627ZM26.7037 39.996L21.0778 34.3701H13.7408V29.1849H21.0778L23.3593 26.9034L26.7037 30.2479V39.996ZM50.037 31.7775C50.037 33.9034 49.6482 35.9516 48.9741 37.8442L52.9408 41.8108C54.3926 38.7775 55.2222 35.3812 55.2222 31.7775C55.2222 20.6812 47.4704 11.3997 37.0741 9.04047V14.3812C44.5667 16.6108 50.037 23.559 50.037 31.7775ZM31.8889 11.0368L27.0148 15.9108L31.8889 20.7849V11.0368ZM43.5556 31.7775C43.5556 27.1886 40.9111 23.2479 37.0741 21.3294V25.9701L43.5037 32.3997C43.5296 32.1923 43.5556 31.9849 43.5556 31.7775Z" fill="#1671AA"/>
</g>
<defs>
<clipPath id="clip0_58_389">
<rect width="62.2222" height="62.2222" fill="white" transform="translate(0.777771 0.666504)"/>
</clipPath>
</defs>
</svg>
