<svg width="90" height="17" viewBox="0 0 90 17" fill="none" xmlns="http://www.w3.org/2000/svg">
<path d="M31.4339 0.02185C30.6618 0.0728386 29.3975 0.253616 28.4763 0.439029C27.8984 0.554912 26.6837 0.856209 26.5031 0.925738L26.3993 0.967456V3.7811L27.045 3.6235C30.1154 2.88185 33.2536 2.76133 34.6849 3.32684C35.1455 3.50762 35.3893 3.66985 35.6919 3.98505C36.1208 4.43468 36.333 5.02337 36.333 5.77429V6.10803H35.0371C32.2783 6.10803 30.129 6.42787 28.5802 7.07218C26.5302 7.92044 25.4872 9.15808 25.3111 10.9519C25.144 12.6948 25.7129 14.1225 26.9592 15.0728C27.5823 15.5456 28.806 16.0833 29.5149 16.1991C29.6007 16.213 29.8445 16.264 30.0522 16.315C30.7385 16.4773 32.5221 16.6349 33.6916 16.6349C34.1521 16.6349 35.1274 16.5653 35.9854 16.468C36.8343 16.3753 38.5817 15.9859 39.3583 15.7171L39.7421 15.5826L39.7557 10.6507C39.7692 5.24123 39.7557 4.82868 39.5344 3.94797C38.8662 1.27339 36.8343 0.105286 32.7163 0.0264853C32.1609 0.0125793 31.5829 0.0125793 31.4339 0.02185ZM36.1208 8.7409L36.4234 8.76871V11.1235C36.4234 13.3252 36.4188 13.4782 36.3466 13.5014C36.0125 13.5987 35.01 13.7702 34.3914 13.8351C33.5155 13.9232 32.2105 13.9046 31.4429 13.7888C30.8695 13.7007 30.0432 13.4272 29.6684 13.2047C29.3252 12.9961 28.9324 12.5929 28.7969 12.3008C28.7156 12.1386 28.6795 11.9671 28.666 11.7075C28.6253 10.9983 28.8285 10.4838 29.3388 9.99244C30.0612 9.28787 31.2623 8.9124 33.3755 8.7409C33.7277 8.70845 35.8183 8.70845 36.1208 8.7409ZM49.6308 0.0264853C49.1747 0.0589326 48.0549 0.235075 47.7433 0.323146C47.5627 0.374135 47.337 0.439029 47.2421 0.462206C47.1473 0.485383 46.8945 0.582724 46.6822 0.670796C45.0025 1.38464 43.8827 2.45076 43.1512 4.04068C42.8216 4.75452 42.6365 5.38029 42.4649 6.34443C42.3791 6.84968 42.3656 7.08145 42.3656 8.15221C42.3656 9.47791 42.4288 10.0944 42.6771 11.0586C43.2325 13.2325 44.4381 14.8178 46.2442 15.7402C48.4839 16.8944 52.0916 16.9222 54.4893 15.8098C56.8147 14.7297 58.2731 12.3611 58.5034 9.29714C58.6615 7.15562 58.3996 5.42664 57.6952 3.95724C56.6973 1.88525 54.9092 0.601266 52.4303 0.179451C51.473 0.0172147 50.5293 -0.0384092 49.6308 0.0264853ZM51.455 2.80305C53.1347 3.15997 54.1551 4.17974 54.6609 6.00606C54.8189 6.58084 54.8686 6.93312 54.9137 7.75821C54.9453 8.30518 54.8866 9.34349 54.8008 9.86728C54.6699 10.6228 54.2906 11.6426 53.9429 12.1618C53.1798 13.3021 51.9652 13.9139 50.4661 13.9139C48.958 13.9186 47.8472 13.3948 47.0525 12.3101C46.1991 11.142 45.7792 9.01902 46.0185 7.09999C46.3526 4.45786 47.6305 3.00236 49.8565 2.72888C50.2719 2.67789 51.0396 2.71034 51.455 2.80305ZM66.6988 0.02185C66.6265 0.0311207 66.2879 0.0728386 65.9538 0.114557C64.4547 0.29997 62.6575 0.828397 61.2849 1.48198L61.1539 1.54687L61.181 7.01656C61.1991 10.0249 61.2126 13.3484 61.2126 14.396V16.3104H64.6443L64.6533 9.92754L64.6669 3.54933L65.0281 3.41954C65.8228 3.13679 66.6446 2.99773 67.5567 2.98846C68.1437 2.98382 68.2792 2.99773 68.5727 3.09044C69.4532 3.37319 70.0221 3.91552 70.3652 4.7916L70.4917 5.11607L70.5052 10.7155L70.5143 16.3104H73.9459V4.02677L74.1898 3.86453C74.542 3.63277 75.1967 3.35001 75.7024 3.20632C76.0817 3.09971 76.2217 3.08116 76.8583 3.08116C77.4137 3.07653 77.6485 3.09507 77.8743 3.15997C78.827 3.42418 79.4456 4.01287 79.7527 4.95384C79.8339 5.19487 79.8385 5.49617 79.852 10.7573L79.8656 16.3104H83.2927L83.2837 10.062L83.2701 3.81818L83.1437 3.401C82.8186 2.33024 82.2858 1.58859 81.4143 0.990633C80.8002 0.564183 80.0958 0.290699 79.2063 0.123827C78.3845 -0.0337739 77.0751 -0.0198679 76.0952 0.151639C74.7406 0.383405 73.5712 0.814491 72.6591 1.42172C72.3746 1.60713 72.3339 1.62104 72.2482 1.56541C72.1985 1.52833 71.9637 1.37073 71.7334 1.20849C70.6181 0.434394 69.3087 0.0589326 67.6019 0.0172147C67.1819 0.00794403 66.7756 0.00794402 66.6988 0.02185ZM0.80174 1.23167C1.12233 1.66276 1.41131 2.04285 1.44292 2.07993C1.47453 2.11702 1.74093 2.47394 2.03895 2.86794C2.33244 3.26194 2.65303 3.68839 2.75237 3.81818C2.84719 3.94334 3.06845 4.23536 3.24003 4.46713C3.41161 4.69426 3.69157 5.06972 3.86766 5.30149C4.03925 5.52862 4.33275 5.91798 4.50884 6.15902C4.68946 6.40006 5.08229 6.92385 5.38482 7.31785C5.68735 7.71649 5.95827 8.08268 5.98988 8.13367C6.04858 8.23101 5.82733 8.54158 4.09795 10.7943C3.93088 11.0122 3.69608 11.3228 3.57417 11.4896C3.45225 11.6565 3.33937 11.8002 3.32582 11.8141C3.30776 11.828 3.16778 12.0134 3.00523 12.2313C2.84719 12.4492 2.63497 12.7319 2.53564 12.8571C2.4363 12.9869 2.30084 13.163 2.23311 13.2511C2.16538 13.3391 1.87188 13.7285 1.57838 14.1179C1.28488 14.5026 0.815286 15.1191 0.53985 15.4899C0.259898 15.8561 0.0205843 16.1945 0.00252288 16.2362C-0.0245692 16.3057 0.137983 16.3104 1.91252 16.3104H3.8496L4.30565 15.6985C4.55851 15.3601 4.87007 14.9337 5.00553 14.7575C5.14099 14.5768 5.52028 14.0715 5.8499 13.6312C6.17952 13.1862 6.52269 12.7273 6.613 12.6068C6.70331 12.4862 7.06453 12.0042 7.4077 11.5406C8.00824 10.7387 8.03985 10.7016 8.11661 10.7804C8.15725 10.8268 8.60427 11.4248 9.10999 12.1154C9.61571 12.8014 10.1666 13.5524 10.3382 13.7841C10.5097 14.0113 10.9974 14.6741 11.4218 15.2535L12.1985 16.3104H14.2485C15.8785 16.3104 16.2849 16.2965 16.2533 16.2501C16.1494 16.1203 15.0883 14.7066 14.5239 13.951C14.1898 13.5014 13.8511 13.0517 13.7698 12.9498C13.6931 12.8478 13.1467 12.1293 12.5642 11.3506C11.9772 10.5719 11.4715 9.90436 11.4399 9.86728C11.4128 9.82556 11.327 9.71432 11.2548 9.61234C11.178 9.51036 11.1058 9.41765 11.0922 9.40375C11.0787 9.38984 10.8665 9.11172 10.6226 8.78725C10.3246 8.38398 10.1982 8.17539 10.2253 8.1383C10.2479 8.10586 10.4285 7.87409 10.6226 7.61451C10.8168 7.35957 11.029 7.08145 11.0922 6.99802C11.1961 6.85432 11.8192 6.03387 12.6455 4.95384C12.8487 4.68499 13.3409 4.04068 13.7382 3.51689C14.1311 2.99309 14.4787 2.5342 14.5104 2.49711C14.542 2.46003 14.8038 2.11238 15.0928 1.73229C15.3863 1.34755 15.7205 0.907197 15.8424 0.744961L16.0681 0.457571H12.1082L11.607 1.13896C10.1666 3.10434 8.2024 5.74184 8.17983 5.74184C8.17531 5.74184 7.29933 4.55056 6.23371 3.09971L4.30114 0.457571H0.214744L0.80174 1.23167ZM18.9038 8.38398V16.3104H22.3355L22.3445 8.50913C22.3535 4.22146 22.3535 0.65689 22.3445 0.582724L22.3309 0.457571H18.9038V8.38398ZM86.5438 8.38398V16.3104H89.9754V0.457571H86.5438V8.38398ZM61.041 4.69889C61.041 4.77306 61.0501 4.80087 61.0636 4.75452C61.0727 4.7128 61.0727 4.6479 61.0636 4.61546C61.0501 4.58765 61.041 4.62009 61.041 4.69889Z" fill="#1671AA"/>
</svg>
