<svg width="16" height="12" viewBox="0 0 16 12" fill="none" xmlns="http://www.w3.org/2000/svg">
<path d="M0.0314717 11.4269C0.0283282 11.3108 0.0247744 11.2021 0.020902 11.074C-0.0306694 9.3832 -0.0710795 8.0573 0.992056 6.51088C1.39028 5.93162 2.00435 5.29289 2.81049 4.84957C3.44206 4.50228 4.19044 4.27479 5.04396 4.28843C5.99315 4.30364 6.6224 4.59825 7.1788 4.85879L7.25697 4.89535C7.33269 4.43959 7.42676 3.96345 7.5679 3.49906C7.76102 2.86356 8.03979 2.25909 8.47345 1.77267C8.84962 1.3507 9.36643 1.00902 9.91499 0.741798C10.6124 0.402061 11.3685 0.179549 11.9417 0.0667489L12.2808 0L12.3317 0.358222C12.4077 0.89355 12.4362 1.52034 12.2647 2.28965C12.1312 2.88813 11.8757 3.5707 11.4243 4.35974C12.2421 4.34089 13.2198 4.54436 14.0629 4.96219C14.8408 5.34775 15.5125 5.91857 15.8615 6.67203L16 6.97111L15.7198 7.12969C14.8437 7.62555 14.3041 8.25925 14.0264 8.97404C13.7107 9.78655 13.6684 10.5221 13.9065 11.4216H13.227C13.0039 10.4137 13.0368 9.67338 13.4101 8.71248C13.711 7.93819 14.2565 7.24899 15.1088 6.69633C14.8055 6.23236 14.3261 5.86238 13.7794 5.59142C12.9869 5.19862 12.0648 5.01852 11.3203 5.05969C10.8246 5.08707 10.358 5.28215 9.90356 5.47212C9.38516 5.68887 8.88069 5.89972 8.30744 5.90184C7.78462 5.90373 7.37105 5.71017 6.90836 5.49351C6.40987 5.26012 5.84596 4.99607 5.03617 4.98312C4.30292 4.97141 3.65996 5.16686 3.11732 5.46525C2.4151 5.85136 1.87884 6.40978 1.53032 6.91676C0.599166 8.27119 0.636433 9.49346 0.683995 11.0522C0.687594 11.1702 0.691284 11.2906 0.694974 11.429L0.0315173 11.4269H0.0314717ZM7.88895 5.1469C8.02685 5.18507 8.16512 5.2077 8.3074 5.2072C8.75236 5.20558 9.19072 5.04862 9.6503 4.85649C9.94046 4.73521 10.3421 4.62227 10.6841 4.19301C11.026 3.76375 11.4714 2.78548 11.6173 2.13168C11.7276 1.63664 11.7416 1.20798 11.714 0.828691C11.2472 0.944764 10.7034 1.12528 10.1932 1.37388C9.71513 1.60677 9.27094 1.89755 8.95965 2.24674C8.60033 2.64977 8.36539 3.16361 8.1997 3.70885C8.05751 4.17678 7.9648 4.67344 7.88899 5.1469H7.88895Z" fill="#2B2A29"/>
</svg>
