<svg width="120" height="17" viewBox="0 0 120 17" fill="none" xmlns="http://www.w3.org/2000/svg">
<path fill-rule="evenodd" clip-rule="evenodd" d="M65.8036 7.89399C65.8036 7.89399 64.6361 7.19551 63.9141 6.92524C63.9141 6.92524 61.6795 5.92316 61.2361 5.44639C61.2361 5.44639 60.3652 4.65226 60.8752 3.72988C60.8752 3.72988 61.0886 3.12631 62.009 3.12631C62.009 3.12631 63.2072 3.19007 63.2072 4.14288V5.48697H67.5013L67.4938 3.50743C67.4938 3.50743 67.824 0.265699 62.4358 0.122959C62.4358 0.122959 58.1979 -0.146586 56.9825 2.06191C56.9825 2.06191 56.5055 2.55462 56.5055 4.27041V5.51015C56.5055 5.51015 56.4568 6.94046 57.2117 7.86211C57.2117 7.86211 57.6385 8.4664 58.6899 9.13301C58.6899 9.13301 60.825 10.2452 62.1063 10.8821C62.1063 10.8821 63.3997 11.5966 63.2297 12.7334C63.2297 12.7334 63.1241 13.9007 61.8749 13.8529C61.8749 13.8529 60.7329 13.8036 60.7329 12.6588V11.3154H56.1572V13.2667C56.1572 13.2667 56.0292 16.9982 61.9086 16.9982C61.9086 16.9982 67.5267 17.1084 67.7888 13.1689V11.5799C67.7881 11.5799 67.9873 9.16562 65.8036 7.89399ZM43.8194 0.587409L42.3816 9.30546H42.0453L40.6719 0.665664H33.4991L33.1397 16.4534H37.3866L37.4375 4.55807H37.7715L40.0226 16.4512H44.4904L46.7139 4.56241H47.0097L47.1123 16.4534H51.3816L50.9218 0.587409H43.8194ZM18.5387 0.653347L15.7132 16.4352H20.2851L21.9589 4.19868H22.3348L24.0078 16.4352H28.579L25.7542 0.653347H18.5387ZM114.472 7.67662V10.0047H115.645V12.5037C115.645 13.7253 114.565 13.7478 114.565 13.7478C113.253 13.7478 113.303 12.587 113.303 12.587V3.9429C113.303 3.0524 114.467 3.00458 114.467 3.00458C115.585 3.00458 115.592 4.0668 115.592 4.0668V5.38118H119.897C120.037 2.81547 119.509 2.19451 119.509 2.19451C118.441 -0.125569 114.401 0.00123114 114.401 0.00123114C108.194 0.00123114 108.883 4.60951 108.883 4.60951V12.9674C109.016 17.2895 115.133 16.8504 115.236 16.8468C117.957 16.5555 118.779 15.7186 118.779 15.7186C119.535 15.1752 119.73 14.4224 119.73 14.4224C119.946 13.984 120 12.587 120 12.587V7.67662H114.472ZM100.203 10.2452H100.016L95.6479 0.591754H90.4215V16.4548H94.6751L94.4205 6.80279H94.6107L99.1362 16.4548H104.204V0.590305H99.8963L100.203 10.2452ZM80.0383 12.5023C80.0383 12.5023 80.0997 13.8043 78.8521 13.8043C78.8521 13.8043 77.54 13.8724 77.54 12.5349L77.5265 0.601173H72.861V12.44C72.861 12.44 72.3825 16.9207 78.9179 16.9207C78.9179 16.9207 84.5975 16.9859 84.5975 12.6457V0.601898H80.0383V12.5023ZM9.6443 7.89399C9.6443 7.89399 8.47829 7.19551 7.75562 6.92597C7.75562 6.92597 5.52247 5.92461 5.07913 5.44711C5.07913 5.44711 4.20818 4.65153 4.71892 3.73132C4.71892 3.73132 4.9316 3.12776 5.85122 3.12776C5.85122 3.12776 7.05018 3.19079 7.05018 4.14361V5.48769H11.3458L11.3375 3.50743C11.3375 3.50743 11.6655 0.265699 6.27958 0.123683C6.27958 0.123683 5.87369 0.0983209 5.27833 0.127304C5.27833 0.127304 2.01546 0.296854 0.848705 2.02858C0.841965 2.04162 0.83223 2.05105 0.82549 2.06264C0.82549 2.06264 0.349202 2.55462 0.349202 4.27113V5.51087C0.349202 5.51087 0.299775 6.94118 1.0554 7.86284C1.0554 7.86284 1.48226 8.46713 2.53369 9.13373C2.53369 9.13373 4.66799 10.246 5.94933 10.8829C5.94933 10.8829 7.24414 11.5958 7.07265 12.7341C7.07265 12.7341 6.96705 13.9014 5.71867 13.8536C5.71867 13.8536 4.57663 13.8043 4.57663 12.6595V11.3154H0.000223137V13.2681C0.000223137 13.2681 -0.127835 16.9997 5.75162 16.9997C5.75162 16.9997 11.3682 17.1098 11.6326 13.1703V11.5828C11.6326 11.5813 11.8288 9.16562 9.6443 7.89399Z" fill="#1671AA"/>
</svg>
