<svg width="35" height="35" viewBox="0 0 35 35" fill="none" xmlns="http://www.w3.org/2000/svg">
<g clip-path="url(#clip0_46_214)">
<path d="M8.75002 11.6667L8.75148 25.4392C8.75148 26.6948 9.76648 27.7083 11.0221 27.7083H11.6667V32.8737C11.6667 34.0462 12.6977 35 13.8688 35C15.0442 35 16.0417 34.0463 16.0417 32.8723V27.7083H18.9584V32.8737C18.9584 34.0462 19.9894 35 21.1619 35C22.3373 35 23.3334 34.0463 23.3334 32.8723V27.7083L23.9809 27.7069C25.2321 27.7069 26.25 26.6919 26.25 25.4363V11.6667H8.75002ZM32.0834 13.8119C32.0834 12.6379 31.0698 11.6667 29.8959 11.6667C28.7219 11.6652 27.7084 12.6394 27.7084 13.8133V22.7179C27.7084 23.8933 28.7204 24.7917 29.8959 24.7917C31.0698 24.7917 32.0834 23.8948 32.0834 22.7179V13.8119ZM7.29169 13.8119C7.29169 12.6379 6.27815 11.6667 5.10419 11.6667C3.93023 11.6652 2.91669 12.6394 2.91669 13.8133V22.7179C2.91669 23.8933 3.92877 24.7917 5.10419 24.7917C6.27815 24.7917 7.29169 23.8948 7.29169 22.7179V13.8119ZM21.8036 3.14854L23.1744 0.4375C23.2736 0.245 23.1467 0 22.9367 0C22.8404 0 22.7471 0.0554167 22.6975 0.153125L21.3136 2.89188C19.0809 1.81708 16.1452 1.70771 13.6879 2.89188L12.3025 0.153125C12.2544 0.0554167 12.1611 0 12.0634 0C11.8534 0 11.7265 0.245 11.8256 0.4375L13.1965 3.14854C10.5059 4.65646 8.75002 6.91688 8.75002 10.2069H26.25C26.25 6.91688 24.4942 4.65646 21.8036 3.14854ZM13.8556 7.29167C13.4531 7.29167 13.125 6.965 13.125 6.5625C13.125 6.16292 13.4531 5.83333 13.8556 5.83333C14.2581 5.83333 14.5834 6.16292 14.5834 6.5625C14.5834 6.965 14.2581 7.29167 13.8556 7.29167ZM21.1444 7.29167C20.7419 7.29167 20.4167 6.965 20.4167 6.5625C20.4167 6.16292 20.7419 5.83333 21.1444 5.83333C21.5469 5.83333 21.875 6.16292 21.875 6.5625C21.875 6.965 21.5469 7.29167 21.1444 7.29167Z" fill="#1671AA"/>
</g>
<defs>
<clipPath id="clip0_46_214">
<rect width="35" height="35" fill="white"/>
</clipPath>
</defs>
</svg>
