<svg width="35" height="35" viewBox="0 0 35 35" fill="none" xmlns="http://www.w3.org/2000/svg">
<path d="M27.7083 35C29.3183 35 30.625 33.6933 30.625 32.0833V2.91667C30.625 1.30667 29.3183 0 27.7083 0H7.29167C5.68167 0 4.375 1.30667 4.375 2.91667V32.0833C4.375 33.6933 5.68167 35 7.29167 35H27.7083ZM7.29167 30.625V4.375H27.7083V30.625H7.29167ZM16.7708 32.8125C16.7708 32.41 17.0975 32.0833 17.5 32.0833C17.9025 32.0833 18.2292 32.41 18.2292 32.8125C18.2292 33.215 17.9025 33.5417 17.5 33.5417C17.0975 33.5417 16.7708 33.215 16.7708 32.8125Z" fill="#1671AA"/>
</svg>
