<svg width="97" height="18" viewBox="0 0 97 18" fill="none" xmlns="http://www.w3.org/2000/svg">
<path d="M10.7979 0.00863646V6.76234H3.31852V0.00863646H0.00500488V16.7495H3.31852V9.95092H10.7979V16.7495H14.1115V0.00863646H10.7979ZM29.446 9.5951C29.446 12.3173 28.1286 13.77 25.7349 13.77C23.3277 13.77 22.0019 12.2759 22.0019 9.47937V0.0224548H18.6901V9.5951C18.6901 14.3054 21.2422 17.0052 25.6911 17.0052C30.1821 17.0052 32.7578 14.2536 32.7578 9.45692V0.012091H29.446V9.5951ZM67.7359 11.5124L64.0282 0H61.3261L57.6201 11.5124L54.0118 0.00863646H50.4877L56.1765 16.7426H58.9189L62.6334 5.75015L66.3444 16.7426H69.1105L74.7857 0.00863646H71.3509L67.7359 11.5124ZM80.7238 9.54328H86.7494V6.49461H80.7238V3.06767H89.47V0.0190002H77.4558V16.7374H89.785V13.6888H80.7238V9.54328ZM93.7285 16.7236H96.9966V0.00518187H93.7285V16.7236ZM43.0403 4.2405L45.4021 9.84556H45.3936L45.5537 10.2325H40.5438L40.7022 9.84556H40.6988L43.0403 4.2405ZM46.7851 13.2518L48.2506 16.7357H51.7225L44.5968 0.10191L44.5328 0.00345458H41.6371L34.444 16.7357H37.8249L39.213 13.4953L39.3124 13.2518H46.7851Z" fill="#1671AA"/>
</svg>
