<svg width="35" height="35" viewBox="0 0 35 35" fill="none" xmlns="http://www.w3.org/2000/svg">
<g clip-path="url(#clip0_46_224)">
<path d="M32.0833 24.7918V7.5835C32.0833 6.61662 31.3002 5.8335 30.3333 5.8335H4.66667C3.69979 5.8335 2.91667 6.61662 2.91667 7.5835V24.7918H32.0833ZM5.83333 8.75016H29.1667V21.8752H5.83333V8.75016ZM35 26.2502V27.4168C35 28.3837 34.2169 29.1668 33.25 29.1668H1.75C0.783125 29.1668 0 28.3837 0 27.4168V26.2502H14.5833C14.5833 26.6527 14.91 26.9793 15.3125 26.9793H19.6875C20.09 26.9793 20.4167 26.6527 20.4167 26.2502H35Z" fill="#1671AA"/>
</g>
<defs>
<clipPath id="clip0_46_224">
<rect width="35" height="35" fill="white"/>
</clipPath>
</defs>
</svg>
