<svg width="32" height="32" viewBox="0 0 32 32" fill="none" xmlns="http://www.w3.org/2000/svg">
<path d="M5.33333 24V23.1333C5.33333 22.68 5.54666 22.2533 5.88 22.0533C8.13333 20.7067 10.7067 20 13.3333 20C13.3733 20 13.4 20 13.44 20.0133C13.5733 19.08 13.84 18.1867 14.2267 17.3733C13.9333 17.3467 13.64 17.3333 13.3333 17.3333C10.1067 17.3333 7.09333 18.2267 4.52 19.76C3.34666 20.4533 2.66666 21.76 2.66666 23.1333V26.6667H15.0133C14.4533 25.8667 14.0133 24.96 13.72 24H5.33333Z" fill="#1671AA"/>
<path d="M13.3333 16C16.28 16 18.6667 13.6133 18.6667 10.6667C18.6667 7.72001 16.28 5.33334 13.3333 5.33334C10.3867 5.33334 8 7.72001 8 10.6667C8 13.6133 10.3867 16 13.3333 16ZM13.3333 8.00001C14.8 8.00001 16 9.20001 16 10.6667C16 12.1333 14.8 13.3333 13.3333 13.3333C11.8667 13.3333 10.6667 12.1333 10.6667 10.6667C10.6667 9.20001 11.8667 8.00001 13.3333 8.00001Z" fill="#1671AA"/>
<path d="M27.6667 21.3334C27.6667 21.04 27.6267 20.7734 27.5867 20.4934L29.1067 19.1467L27.7733 16.84L25.84 17.4934C25.4133 17.1334 24.9333 16.8534 24.4 16.6534L24 14.6667H21.3333L20.9333 16.6534C20.4 16.8534 19.92 17.1334 19.4933 17.4934L17.56 16.84L16.2267 19.1467L17.7467 20.4934C17.7067 20.7734 17.6667 21.04 17.6667 21.3334C17.6667 21.6267 17.7067 21.8934 17.7467 22.1734L16.2267 23.52L17.56 25.8267L19.4933 25.1734C19.92 25.5334 20.4 25.8134 20.9333 26.0134L21.3333 28H24L24.4 26.0134C24.9333 25.8134 25.4133 25.5334 25.84 25.1734L27.7733 25.8267L29.1067 23.52L27.5867 22.1734C27.6267 21.8934 27.6667 21.6267 27.6667 21.3334ZM22.6667 24C21.2 24 20 22.8 20 21.3334C20 19.8667 21.2 18.6667 22.6667 18.6667C24.1333 18.6667 25.3333 19.8667 25.3333 21.3334C25.3333 22.8 24.1333 24 22.6667 24Z" fill="#1671AA"/>
</svg>
