<svg width="63" height="63" viewBox="0 0 63 63" fill="none" xmlns="http://www.w3.org/2000/svg">
<g clip-path="url(#clip0_58_365)">
<path d="M55.2222 28.7408L60.4074 23.5556C50.737 13.8852 37.4111 10.2038 24.8889 12.3815L31.5778 19.0704C40.1333 19.0186 48.7148 22.2334 55.2222 28.7408ZM50.037 33.926C47.237 31.126 43.9185 29.1297 40.3926 27.8852L48.2222 35.7149L50.037 33.926ZM24.1111 44.2963L31.8889 52.0741L39.6667 44.2963C35.3889 39.9926 28.4148 39.9926 24.1111 44.2963ZM9.61851 4.47412L5.96295 8.12968L13.8704 16.0371C10.0852 17.9297 6.53332 20.4186 3.37036 23.5556L8.55555 28.7408C11.7444 25.5519 15.4259 23.1408 19.3667 21.5334L25.1741 27.3408C20.9741 28.4556 17.0333 30.6593 13.7407 33.926L18.9259 39.1112C22.4259 35.6112 26.9889 33.8223 31.6037 33.7704L49.9592 52.126L53.6148 48.4704L9.61851 4.47412Z" fill="#1671AA"/>
</g>
<defs>
<clipPath id="clip0_58_365">
<rect width="62.2222" height="62.2222" fill="white" transform="translate(0.777771 0.222168)"/>
</clipPath>
</defs>
</svg>
